# Blender v2.78 (sub 0) OBJ File: 'Grass.blend'
# www.blender.org
mtllib Grass.mtl
o Plane.003
v -0.707107 0.015351 0.707107
v 0.707107 0.015351 -0.707107
v -0.707107 2.015351 0.707107
v 0.707107 2.015351 -0.707107
vt 0.9999 0.9999
vt 0.0001 0.0001
vt 0.0001 0.9999
vt 0.9999 0.0001
vn 0.7071 -0.0000 0.7071
usemtl None
s off
f 2/1/1 3/2/1 1/3/1
f 2/1/1 4/4/1 3/2/1
o Plane.002
v 0.707107 0.015351 0.707107
v -0.707107 0.015351 -0.707107
v 0.707107 2.015351 0.707107
v -0.707107 2.015351 -0.707107
vt 0.9999 0.9999
vt 0.0001 0.0001
vt 0.0001 0.9999
vt 0.9999 0.0001
vn 0.7071 -0.0000 -0.7071
usemtl None
s off
f 6/5/2 7/6/2 5/7/2
f 6/5/2 8/8/2 7/6/2
o Plane.001
v 0.000000 0.015351 1.000000
v -0.000000 0.015351 -1.000000
v 0.000000 2.015351 1.000000
v 0.000000 2.015351 -1.000000
vt 0.9999 0.9999
vt 0.0001 0.0001
vt 0.0001 0.9999
vt 0.9999 0.0001
vn 1.0000 -0.0000 -0.0000
usemtl None
s off
f 10/9/3 11/10/3 9/11/3
f 10/9/3 12/12/3 11/10/3
o Plane
v -1.000000 0.000306 -0.000000
v 1.000000 0.000306 -0.000000
v -1.000000 2.000307 0.000000
v 1.000000 2.000307 0.000000
vt 0.0001 0.0001
vt 0.9999 0.9999
vt 0.0001 0.9999
vt 0.9999 0.0001
vn 0.0000 0.0000 -1.0000
usemtl None
s off
f 15/13/4 14/14/4 13/15/4
f 15/13/4 16/16/4 14/14/4
