# Blender v2.78 (sub 0) OBJ File: 'grass 2.blend'
# www.blender.org
mtllib grass 2.mtl
o Plane.002
v -1.192074 -2.000000 0.508876
v -1.192075 -0.000000 0.508876
v 0.222139 -2.000000 -0.905337
v 0.222139 0.000000 -0.905337
vn -0.7071 -0.0000 -0.7071
usemtl None
s off
f 1//1 4//1 3//1
f 1//1 2//1 4//1
o Plane.001
v 0.238358 -2.000000 1.106677
v 0.238358 0.000000 1.106677
v -1.175856 -2.000000 -0.307537
v -1.175856 -0.000000 -0.307537
vt 0.9999 0.0001
vt 0.0001 0.9999
vt 0.0001 0.0001
vt 0.9999 0.9999
vn -0.7071 -0.0000 0.7071
usemtl None
s off
f 6/1/2 7/2/2 5/3/2
f 6/1/2 8/4/2 7/2/2
o Plane
v -0.018218 -2.000000 1.118255
v -0.018218 0.000000 1.118255
v -0.018218 -2.000000 -0.881745
v -0.018218 0.000000 -0.881745
vt 0.9999 0.0001
vt 0.0001 0.9999
vt 0.0001 0.0001
vt 0.9999 0.9999
vn -1.0000 -0.0000 0.0000
usemtl None
s off
f 10/5/3 11/6/3 9/7/3
f 10/5/3 12/8/3 11/6/3
