# Blender v2.79 (sub 0) OBJ File: ''
# www.blender.org
mtllib SkyBoxCube.mtl
o Cube
v 2000.000000 -2000.000000 -1999.999878
v 2000.000000 -2000.000000 2000.000000
v -2000.000244 -2000.000000 1999.999634
v -1999.999268 -2000.000000 -2000.000732
v 2000.000977 2000.000000 -1999.998901
v 1999.998657 2000.000000 2000.001221
v -2000.000732 2000.000000 1999.999268
v -1999.999878 2000.000000 -2000.000000
vt 0.000000 1.000000
vt 0.333333 0.666667
vt 0.000000 0.666667
vt 0.000000 0.333333
vt 0.333333 0.666667
vt 0.333333 0.333333
vt 0.666667 0.000000
vt 0.666667 0.333333
vt 0.333333 0.333333
vt 0.000000 0.000000
vt 0.000000 0.333333
vt 1.000000 0.333333
vt 0.666667 0.000000
vt 0.666667 0.333333
vt 0.333333 1.000000
vt 0.000000 0.666667
vt 0.333333 0.000000
vt 0.333333 0.000000
vt 1.000000 0.000000
vt 0.666667 0.666667
vn 0.0000 1.0000 0.0000
vn 0.0000 -1.0000 -0.0000
vn -1.0000 0.0000 0.0000
vn 0.0000 0.0000 -1.0000
vn 1.0000 0.0000 0.0000
vn -0.0000 -0.0000 1.0000
usemtl Material
s off
f 4/1/1 2/2/1 1/3/1
f 6/4/2 8/5/2 5/6/2
f 2/7/3 5/6/3 1/8/3
f 3/9/4 6/10/4 2/11/4
f 3/12/5 8/13/5 7/14/5
f 8/5/6 1/8/6 5/6/6
f 4/1/1 3/15/1 2/2/1
f 6/4/2 7/16/2 8/5/2
f 2/7/3 6/17/3 5/6/3
f 3/9/4 7/18/4 6/10/4
f 3/12/5 4/19/5 8/13/5
f 8/5/6 4/20/6 1/8/6
