# Blender v2.79 (sub 0) OBJ File: 'model test.blend'
# www.blender.org
mtllib model test.mtl
o Cube
v 1.000000 -1.000000 -1.000000
v 0.899717 -0.899717 1.593755
v -0.899717 -0.899717 1.593755
v -1.000000 -1.000000 -1.000000
v 1.000000 1.000000 -0.999999
v 0.899716 0.899717 1.593755
v -0.899717 0.899717 1.593754
v -1.000000 1.000000 -1.000000
v 0.270382 2.326212 -0.427696
v 0.270382 2.326212 0.427697
v -0.541608 2.212301 -0.541608
v -0.541608 2.212301 0.541607
v 1.000000 -1.000000 1.000000
v -1.000000 -1.000000 1.000000
v 0.999999 1.000000 1.000001
v -1.000000 1.000000 1.000000
v 0.270382 3.014995 -0.427696
v 0.270382 3.014995 0.427697
v -0.541608 3.128906 -0.541608
v -0.541608 3.128906 0.541607
v 0.541608 2.212301 -0.541607
v 0.541607 2.212301 0.541608
v 0.541608 3.128906 -0.541607
v 0.541607 3.128906 0.541608
v 1.000000 -1.000000 -1.845253
v -0.999999 -1.000000 -1.845254
v 1.000001 1.000000 -1.845253
v -1.000000 1.000000 -1.845253
vn 0.0000 -1.0000 0.0000
vn -0.9354 0.3537 -0.0000
vn 1.0000 0.0000 0.0000
vn -0.0000 -0.0000 1.0000
vn -1.0000 -0.0000 -0.0000
vn 0.0000 0.3537 -0.9354
vn -0.0000 0.3537 0.9354
vn 0.9354 0.3537 0.0000
vn -0.0000 -0.9860 0.1665
vn 0.9860 0.0000 0.1665
vn -0.9860 -0.0000 0.1665
vn -0.0000 0.9860 0.1665
vn 0.0000 1.0000 0.0000
vn 0.0000 0.0000 -1.0000
vn 0.3872 0.9220 0.0000
vn 0.3872 -0.9220 0.0000
vn 0.3872 0.0000 0.9220
vn 0.3872 0.0000 -0.9220
usemtl Material
s off
f 1//1 13//1 14//1 4//1
f 8//2 16//2 12//2 11//2
f 1//3 5//3 15//3 13//3
f 2//4 6//4 7//4 3//4
f 14//5 16//5 8//5 4//5
f 5//3 1//3 25//3 27//3
f 11//5 12//5 20//5 19//5
f 5//6 8//6 11//6 21//6
f 16//7 15//7 22//7 12//7
f 15//8 5//8 21//8 22//8
f 2//9 3//9 14//9 13//9
f 6//10 2//10 13//10 15//10
f 3//11 7//11 16//11 14//11
f 7//12 6//12 15//12 16//12
f 23//13 19//13 20//13 24//13
f 21//14 11//14 19//14 23//14
f 12//4 22//4 24//4 20//4
f 10//3 9//3 17//3 18//3
f 9//15 10//15 22//15 21//15
f 18//16 17//16 23//16 24//16
f 17//17 9//17 21//17 23//17
f 10//18 18//18 24//18 22//18
f 27//14 25//14 26//14 28//14
f 8//13 5//13 27//13 28//13
f 4//5 8//5 28//5 26//5
f 1//1 4//1 26//1 25//1
