# Blender v2.78 (sub 0) OBJ File: ''
# www.blender.org
v 0.473684 -1.000000 1.332525
v 0.473684 1.000000 1.332525
v -1.332525 -1.000000 0.473684
v -1.332525 1.000000 0.473684
v 1.332525 -1.000000 -0.473684
v 1.332525 1.000000 -0.473684
v -0.473684 -1.000000 -1.332525
v -0.473684 1.000000 -1.332525
vt 0.4167 0.2500
vt 0.5833 0.0833
vt 0.5833 0.2500
vt 0.0833 0.5833
vt 0.2500 0.4167
vt 0.2500 0.5833
vt 0.0833 0.2500
vt 0.2500 0.0833
vt 0.2500 0.2500
vt 0.4167 0.4167
vt 0.5833 0.5833
vt 0.4167 0.5833
vt 0.7500 0.2500
vt 0.9167 0.0833
vt 0.9167 0.2500
vt 0.2500 0.9167
vt 0.0833 0.7500
vt 0.2500 0.7500
vt 0.4167 0.0833
vt 0.0833 0.4167
vt 0.0833 0.0833
vt 0.5833 0.4167
vt 0.7500 0.0833
vt 0.0833 0.9167
vn -0.4294 0.0000 0.9031
vn -0.9031 0.0000 -0.4294
vn 0.4294 0.0000 -0.9031
vn 0.9031 0.0000 0.4294
vn 0.0000 -1.0000 -0.0000
vn 0.0000 1.0000 0.0000
s off
f 2/1/1 3/2/1 1/3/1
f 4/4/2 7/5/2 3/6/2
f 8/7/3 5/8/3 7/9/3
f 6/10/4 1/11/4 5/12/4
f 7/13/5 1/14/5 3/15/5
f 4/16/6 6/17/6 8/18/6
f 2/1/1 4/19/1 3/2/1
f 4/4/2 8/20/2 7/5/2
f 8/7/3 6/21/3 5/8/3
f 6/10/4 2/22/4 1/11/4
f 7/13/5 5/23/5 1/14/5
f 4/16/6 2/24/6 6/17/6
